<svg width="18" height="16" viewBox="0 0 18 16" fill="none" xmlns="http://www.w3.org/2000/svg">
<path d="M15.7696 2.23475C15.3806 1.84337 14.9183 1.53284 14.4094 1.32096C13.9004 1.10907 13.3548 1 12.8037 1C12.2526 1 11.7069 1.10907 11.1979 1.32096C10.689 1.53284 10.2267 1.84337 9.83773 2.23475L9.24066 2.84113L8.6436 2.23475C8.25459 1.84337 7.79236 1.53284 7.2834 1.32096C6.77444 1.10907 6.22876 1 5.67767 1C5.12657 1 4.5809 1.10907 4.07194 1.32096C3.56298 1.53284 3.10074 1.84337 2.71174 2.23475C1.06787 3.88288 0.967071 6.66605 3.03741 8.78063L9.24066 15L15.4439 8.78063C17.5143 6.66605 17.4135 3.88288 15.7696 2.23475Z" stroke="#0073E5" stroke-linecap="round" stroke-linejoin="round"/>
</svg>
