<svg width="25" height="24" viewBox="0 0 25 24" fill="none" xmlns="http://www.w3.org/2000/svg">
<path d="M22.9094 0H1.45882C0.718398 0 0.118164 0.5953 0.118164 1.32964V22.6039C0.118164 23.3382 0.718398 23.9335 1.45882 23.9335H13.0287V14.6925H9.85135V11.0493H12.9885V8.39003C12.8585 7.10891 13.3059 5.83628 14.2109 4.91308C15.1158 3.98988 16.3859 3.51049 17.6808 3.60332C18.626 3.60383 19.5704 3.6571 20.5096 3.76288V7.0072H18.579C17.0641 7.0072 16.7826 7.71191 16.7826 8.76233V11.0759H20.4023L19.9331 14.6925H16.7826V24H22.9094C23.6498 24 24.25 23.4047 24.25 22.6704V1.32964C24.25 0.5953 23.6498 0 22.9094 0Z" fill="#0073E6"/>
</svg>
